<?xml version="1.0" encoding="UTF-8" standalone="no"?><!DOCTYPE svg PUBLIC "-//W3C//DTD SVG 1.1//EN" "http://www.w3.org/Graphics/SVG/1.1/DTD/svg11.dtd"><svg width="100%" height="100%" viewBox="0 0 167 167" version="1.1" xmlns="http://www.w3.org/2000/svg" xmlns:xlink="http://www.w3.org/1999/xlink" xml:space="preserve" xmlns:serif="http://www.serif.com/" style="fill-rule:evenodd;clip-rule:evenodd;stroke-linejoin:round;stroke-miterlimit:2;"><rect x="-0" y="0" width="166.667" height="166.667" style="fill:none;"/><path d="M92.704,48.129l-6.416,-3.075c0.416,-0.833 10.17,-20.441 29.358,-25.904c11.104,-3.162 22.916,-0.917 35.096,6.667l-3.792,5.975c-10.388,-6.454 -20.242,-8.413 -29.292,-5.859c-16.112,4.546 -24.866,22.017 -24.954,22.196Z" style="fill:#ffb86c;fill-rule:nonzero;"/><path d="M90.836,52.027l-6.417,-3.075c-1.045,-0.501 -1.845,-1.4 -2.221,-2.497c-0.375,-1.096 -0.295,-2.297 0.223,-3.334c0.454,-0.907 11.147,-22.18 32.041,-28.128c12.192,-3.472 25.192,-1.172 38.564,7.154c0.979,0.61 1.674,1.585 1.93,2.709c0.256,1.124 0.053,2.303 -0.565,3.277l-3.791,5.975c-1.271,2.002 -3.917,2.607 -5.931,1.355c-9.177,-5.701 -17.842,-7.626 -25.837,-5.37c-14.41,4.066 -22.165,19.773 -22.244,19.933c-1.042,2.134 -3.61,3.028 -5.752,2.001Z" style="fill:#ffb86c;"/><path d="M109.217,49.275l-22.609,-14.046l5.75,-9.058c3.758,-5.874 11.654,-7.661 17.575,-3.979l1.013,0.629c3.705,2.281 5.968,6.332 5.968,10.683c-0,2.376 -0.676,4.705 -1.947,6.713l-5.75,9.058Z" style="fill:#6272a4;fill-rule:nonzero;"/><ellipse cx="73.854" cy="91.171" rx="66.579" ry="65.883" style="fill:#6272a4;"/><path d="M165.967,26.834l-11.038,-3.679l5.206,-10.422c0.071,-0.141 0.109,-0.298 0.109,-0.457c-0,-0.557 -0.459,-1.016 -1.017,-1.016c-0.159,0 -0.317,0.038 -0.46,0.11l-10.407,5.216l-3.684,-11.043c-0.138,-0.412 -0.527,-0.692 -0.963,-0.692c-0.435,-0 -0.824,0.28 -0.963,0.692l-3.684,11.043l-10.407,-5.206c-0.143,-0.072 -0.3,-0.11 -0.46,-0.11c-0.557,-0 -1.016,0.459 -1.016,1.016c-0,0.159 0.037,0.315 0.108,0.457l5.206,10.412l-11.038,3.679c-0.412,0.139 -0.692,0.528 -0.692,0.963c0,0.435 0.28,0.825 0.692,0.963l11.038,3.68l-5.206,10.416c-0.071,0.142 -0.108,0.298 -0.108,0.457c-0,0.557 0.459,1.016 1.016,1.016c0.16,0 0.317,-0.038 0.46,-0.11l10.407,-5.206l3.684,11.043c0.139,0.412 0.528,0.692 0.963,0.692c0.436,0 0.825,-0.28 0.963,-0.692l3.684,-11.043l10.407,5.206c0.143,0.072 0.301,0.11 0.46,0.11c0.558,0 1.017,-0.459 1.017,-1.016c-0,-0.159 -0.038,-0.315 -0.109,-0.457l-5.206,-10.412l11.038,-3.679c0.416,-0.136 0.7,-0.527 0.7,-0.965c-0,-0.439 -0.284,-0.83 -0.7,-0.966Z" style="fill:#ef4452;fill-rule:nonzero;"/></svg>