<?xml version="1.0" encoding="UTF-8" standalone="no"?><!DOCTYPE svg PUBLIC "-//W3C//DTD SVG 1.1//EN" "http://www.w3.org/Graphics/SVG/1.1/DTD/svg11.dtd"><svg width="100%" height="100%" viewBox="0 0 696 696" version="1.1" xmlns="http://www.w3.org/2000/svg" xmlns:xlink="http://www.w3.org/1999/xlink" xml:space="preserve" xmlns:serif="http://www.serif.com/" style="fill-rule:evenodd;clip-rule:evenodd;stroke-linejoin:round;stroke-miterlimit:2;"><path d="M681.294,379.448l-301.363,301.508c-8.65,8.654 -20.4,13.521 -32.633,13.521c-12.233,0 -23.979,-4.867 -32.629,-13.521l-301.513,-301.508c-4.454,-4.467 -6.962,-10.521 -6.962,-16.829c-0,-13.054 10.733,-23.8 23.787,-23.817l147.459,0c14.525,0 26.479,-11.95 26.479,-26.475l-0,-289.821c0.016,-12.333 10.171,-22.471 22.504,-22.471l241.75,0c12.333,0 22.487,10.138 22.508,22.471l0,289.821c0,14.525 11.95,26.475 26.475,26.475l147.459,0c13,0.096 23.641,10.817 23.641,23.817c0,6.308 -2.504,12.362 -6.962,16.829Z" style="fill:#6272a4;fill-rule:nonzero;"/></svg>