<?xml version="1.0" encoding="UTF-8" standalone="no"?><!DOCTYPE svg PUBLIC "-//W3C//DTD SVG 1.1//EN" "http://www.w3.org/Graphics/SVG/1.1/DTD/svg11.dtd"><svg width="100%" height="100%" viewBox="0 0 167 167" version="1.1" xmlns="http://www.w3.org/2000/svg" xmlns:xlink="http://www.w3.org/1999/xlink" xml:space="preserve" xmlns:serif="http://www.serif.com/" style="fill-rule:evenodd;clip-rule:evenodd;stroke-linecap:round;stroke-linejoin:round;"><rect id="Artboard3" x="0" y="0" width="166.667" height="166.667" style="fill:none;"/><clipPath id="_clip1"><rect x="0" y="0" width="166.667" height="166.667"/></clipPath><g clip-path="url(#_clip1)"><path d="M72.792,147.871l-0,-32.375" style="fill:none;fill-rule:nonzero;stroke:#6272a4;stroke-width:12.04px;"/><path d="M160.667,64.967l-54.859,-35.117l0,0.025c-0.175,-0.108 -0.325,-0.242 -0.5,-0.35c-9.728,-6.136 -20.998,-9.394 -32.499,-9.394c-33.418,0 -60.917,27.499 -60.917,60.917c0,33.418 27.499,60.917 60.917,60.917c32.046,-0 58.893,-25.288 60.808,-57.278l16.325,3.409c1.26,0.401 2.574,0.604 3.896,0.604c7.051,0 12.854,-5.802 12.854,-12.854c-0,-4.413 -2.273,-8.529 -6.009,-10.879l-0.016,-0Z" style="fill:#fff;fill-opacity:0.8;fill-rule:nonzero;"/><path d="M53.817,125.701c-13.236,-5.34 -23.754,-16.123 -28.055,-29.857l44.083,0.05l-16.028,29.807Z" style="fill:#23b169;fill-rule:nonzero;"/><path d="M58.527,31.124l-32.248,61.276c-0.4,0.76 -0.609,1.607 -0.609,2.466c-0,2.902 2.388,5.29 5.29,5.29l64.518,0c2.903,0 5.291,-2.388 5.291,-5.29c-0,-0.859 -0.209,-1.706 -0.61,-2.466l-32.258,-61.276c-0.912,-1.741 -2.722,-2.836 -4.687,-2.836c-1.965,-0 -3.775,1.095 -4.687,2.836Z" style="fill:#23b169;fill-rule:nonzero;"/><path d="M99.884,55.508l19.42,36.892c0.4,0.76 0.61,1.607 0.61,2.466c-0,2.902 -2.388,5.29 -5.291,5.29c-0,0 -47.608,0 -47.608,0l23.505,-44.648c0.914,-1.735 2.721,-2.826 4.682,-2.826c1.962,-0 3.768,1.091 4.682,2.826Z" style="fill:#0a9f60;fill-rule:nonzero;"/><path d="M77.796,79.678l-7.951,15.24" style="fill:none;"/><path d="M69.851,95.42l50.091,0.058c-6.269,20.146 -25.488,34.02 -47.125,34.02c-6.679,-0 -13.126,-1.322 -19.033,-3.741l16.067,-30.337Z" style="fill:#0a9f60;"/><path d="M54.469,57.001c4.366,0 4.366,4.552 8.732,4.552c4.366,0 4.371,-4.552 8.74,-4.552c4.368,0 4.373,4.552 8.747,4.552c0.995,0.019 1.97,-0.281 2.782,-0.856l-15.898,-30.197c-0.849,-1.615 -2.529,-2.629 -4.353,-2.629c-1.824,-0 -3.504,1.014 -4.353,2.629l-15.9,30.202c0.81,0.571 1.781,0.87 2.772,0.851c4.366,0 4.366,-4.552 8.731,-4.552Z" style="fill:#68c76f;fill-rule:nonzero;"/><path d="M23.85,147.871l18.317,-27.796l57.271,0l18.316,27.796" style="fill:none;fill-rule:nonzero;stroke:#6272a4;stroke-width:12.04px;"/><path d="M25.121,120.075l94.025,0" style="fill:none;fill-rule:nonzero;stroke:#6272a4;stroke-width:12.04px;"/></g></svg>