<?xml version="1.0" encoding="UTF-8" standalone="no"?><!DOCTYPE svg PUBLIC "-//W3C//DTD SVG 1.1//EN" "http://www.w3.org/Graphics/SVG/1.1/DTD/svg11.dtd"><svg width="100%" height="100%" viewBox="0 0 696 696" version="1.1" xmlns="http://www.w3.org/2000/svg" xmlns:xlink="http://www.w3.org/1999/xlink" xml:space="preserve" xmlns:serif="http://www.serif.com/" style="fill-rule:evenodd;clip-rule:evenodd;stroke-linejoin:round;stroke-miterlimit:2;"><path d="M315.033,681.325l-301.508,-301.363c-8.654,-8.649 -13.521,-20.399 -13.521,-32.633c0,-12.233 4.867,-23.979 13.521,-32.629l301.508,-301.513c4.467,-4.454 10.521,-6.962 16.829,-6.962c13.055,0 23.801,10.733 23.817,23.788l0,147.458c0,14.525 11.95,26.479 26.475,26.479l289.821,0c12.333,0.017 22.471,10.171 22.471,22.504l-0,241.75c-0,12.334 -10.138,22.488 -22.471,22.509l-289.821,-0c-14.525,-0 -26.475,11.95 -26.475,26.475l0,147.458c-0.096,13 -10.817,23.642 -23.817,23.642c-6.308,-0 -12.362,-2.505 -16.829,-6.963Z" style="fill:#6272a4;fill-rule:nonzero;"/></svg>