<?xml version="1.0" encoding="UTF-8" standalone="no"?><!DOCTYPE svg PUBLIC "-//W3C//DTD SVG 1.1//EN" "http://www.w3.org/Graphics/SVG/1.1/DTD/svg11.dtd"><svg width="100%" height="100%" viewBox="0 0 167 167" version="1.1" xmlns="http://www.w3.org/2000/svg" xmlns:xlink="http://www.w3.org/1999/xlink" xml:space="preserve" xmlns:serif="http://www.serif.com/" style="fill-rule:evenodd;clip-rule:evenodd;stroke-linecap:round;stroke-miterlimit:10;"><path d="M55.996,49.458c-0,-0.009 -0,-0.019 -0,-0.029c-0,-14.8 12.179,-26.979 26.979,-26.979c0.008,-0 0.017,-0 0.025,0c14.917,0 31.175,11.813 27.008,29.958c-4.408,19.196 -27.008,19.013 -27.008,40.13" style="fill:none;fill-rule:nonzero;stroke:#6272a4;stroke-width:19.79px;"/><path d="M83.138,114.133c-8.252,0 -15.042,6.79 -15.042,15.042c-0,8.252 6.79,15.042 15.042,15.042c8.251,-0 15.041,-6.79 15.041,-15.042c0,-0.003 0,-0.006 0,-0.008c0,-8.252 -6.79,-15.042 -15.041,-15.042l-0.001,0.008Z" style="fill:#6272a4;fill-rule:nonzero;"/></svg>