<?xml version="1.0" encoding="UTF-8" standalone="no"?><!DOCTYPE svg PUBLIC "-//W3C//DTD SVG 1.1//EN" "http://www.w3.org/Graphics/SVG/1.1/DTD/svg11.dtd"><svg width="100%" height="100%" viewBox="0 0 167 167" version="1.1" xmlns="http://www.w3.org/2000/svg" xmlns:xlink="http://www.w3.org/1999/xlink" xml:space="preserve" xmlns:serif="http://www.serif.com/" style="fill-rule:evenodd;clip-rule:evenodd;stroke-linejoin:round;stroke-miterlimit:2;"><path d="M91.06,163.518l72.362,-72.327c2.077,-2.076 3.245,-4.896 3.245,-7.832c-0,-2.936 -1.168,-5.755 -3.245,-7.831l-72.362,-72.363c-1.072,-1.069 -2.525,-1.671 -4.039,-1.671c-3.133,0 -5.712,2.576 -5.716,5.709l0,35.39c0,3.486 -2.868,6.355 -6.354,6.355c-0.003,-0 -0.006,-0 -0.009,-0l-69.548,-0c-2.96,0.004 -5.393,2.441 -5.393,5.401l-0,58.02c-0,2.96 2.433,5.397 5.393,5.402l69.548,-0c0.003,-0 0.006,-0 0.009,-0c3.486,-0 6.354,2.868 6.354,6.354c0,-0 0,35.39 0,35.39c0.023,3.12 2.596,5.674 5.716,5.674c1.514,-0 2.967,-0.601 4.039,-1.671Z" style="fill:#bd93f9;fill-rule:nonzero;"/><rect x="-0" y="0" width="166.667" height="166.667" style="fill:none;"/></svg>