<?xml version="1.0" encoding="UTF-8" standalone="no"?><!DOCTYPE svg PUBLIC "-//W3C//DTD SVG 1.1//EN" "http://www.w3.org/Graphics/SVG/1.1/DTD/svg11.dtd"><svg width="100%" height="100%" viewBox="0 0 696 696" version="1.1" xmlns="http://www.w3.org/2000/svg" xmlns:xlink="http://www.w3.org/1999/xlink" xml:space="preserve" xmlns:serif="http://www.serif.com/" style="fill-rule:evenodd;clip-rule:evenodd;stroke-linejoin:round;stroke-miterlimit:2;"><path d="M13.156,315.065l301.363,-301.509c8.65,-8.654 20.4,-13.521 32.633,-13.521c12.233,0 23.979,4.867 32.629,13.521l301.513,301.509c4.454,4.466 6.962,10.52 6.962,16.829c0,13.054 -10.733,23.8 -23.787,23.816l-147.459,0c-14.525,0 -26.479,11.95 -26.479,26.475l0,289.821c-0.016,12.334 -10.171,22.471 -22.504,22.471l-241.75,0c-12.333,0 -22.487,-10.137 -22.508,-22.471l-0,-289.821c-0,-14.525 -11.95,-26.475 -26.475,-26.475l-147.459,0c-13,-0.095 -23.641,-10.816 -23.641,-23.816c-0,-6.309 2.504,-12.363 6.962,-16.829Z" style="fill:#bd93f9;fill-rule:nonzero;"/></svg>