<?xml version="1.0" encoding="UTF-8" standalone="no"?><!DOCTYPE svg PUBLIC "-//W3C//DTD SVG 1.1//EN" "http://www.w3.org/Graphics/SVG/1.1/DTD/svg11.dtd"><svg width="100%" height="100%" viewBox="0 0 167 167" version="1.1" xmlns="http://www.w3.org/2000/svg" xmlns:xlink="http://www.w3.org/1999/xlink" xml:space="preserve" xmlns:serif="http://www.serif.com/" style="fill-rule:evenodd;clip-rule:evenodd;stroke-linejoin:round;stroke-miterlimit:2;"><rect id="Artboard1" x="0" y="0" width="166.667" height="166.667" style="fill:none;"/><g id="Artboard11" serif:id="Artboard1"><rect id="SVGID" x="0" y="0" width="166.667" height="166.667" style="fill:#fff;fill-opacity:0;"/><path d="M83.121,6.954l-60.333,24.779c-2.598,1.069 -4.303,3.612 -4.305,6.421l0,38.246l64.638,0l-0,-69.446Z" style="fill:#ff992c;fill-rule:nonzero;"/><path d="M18.483,76.4l0,16.933c0,26.067 34.071,51.392 64.638,66.417l-0,-83.333l-64.638,-0.017Z" style="fill:#f55;fill-rule:nonzero;"/><path d="M83.121,159.733c30.562,-15.025 64.633,-40.35 64.633,-66.416l0,-16.917l-64.633,0l-0,83.333Z" style="fill:#a81a00;fill-rule:nonzero;"/><path d="M83.121,6.954l-0,69.446l64.633,0l0,-38.246c-0.001,-2.809 -1.706,-5.352 -4.304,-6.421l-60.329,-24.779Z" style="fill:#d57000;fill-rule:nonzero;"/></g></svg>