<?xml version="1.0" encoding="UTF-8" standalone="no"?><!DOCTYPE svg PUBLIC "-//W3C//DTD SVG 1.1//EN" "http://www.w3.org/Graphics/SVG/1.1/DTD/svg11.dtd"><svg width="100%" height="100%" viewBox="0 0 167 167" version="1.1" xmlns="http://www.w3.org/2000/svg" xmlns:xlink="http://www.w3.org/1999/xlink" xml:space="preserve" xmlns:serif="http://www.serif.com/" style="fill-rule:evenodd;clip-rule:evenodd;stroke-linecap:round;stroke-linejoin:round;"><rect id="Artboard1" x="0" y="0" width="166.667" height="166.667" style="fill:none;"/><clipPath id="_clip1"><rect id="Artboard11" serif:id="Artboard1" x="0" y="0" width="166.667" height="166.667"/></clipPath><g clip-path="url(#_clip1)"><path d="M72.792,147.871l-0,-32.375" style="fill:none;fill-rule:nonzero;stroke:#6272a4;stroke-width:12.04px;"/><path d="M160.667,64.967l-54.859,-35.117l0,0.025c-0.175,-0.108 -0.325,-0.242 -0.5,-0.35c-9.728,-6.136 -20.998,-9.394 -32.499,-9.394c-33.418,0 -60.917,27.499 -60.917,60.917c0,33.418 27.499,60.917 60.917,60.917c32.046,-0 58.893,-25.288 60.808,-57.278l16.325,3.409c1.26,0.401 2.574,0.604 3.896,0.604c7.051,0 12.854,-5.802 12.854,-12.854c-0,-4.413 -2.273,-8.529 -6.009,-10.879l-0.016,-0Z" style="fill:#fff;fill-opacity:0.8;fill-rule:nonzero;"/><path d="M108.662,55.387c1.307,7.72 2.829,12.138 -3.415,12.138c-8.478,-0 -8.478,-17.781 -22.865,-27.91c-14.217,-10.019 -24.821,-7.584 -25.045,-7.53c11.829,8.746 5.237,23.121 -2.515,27.084c-7.434,3.802 -15.925,-0.993 -11.478,-12.279c-9.773,11.824 -18.223,26.153 -18.223,40.43c-0,23.138 21.519,42.178 47.67,42.178c26.152,-0 47.671,-19.04 47.672,-42.178c-0,-10.998 -5.026,-22.033 -11.801,-31.933Z" style="fill:#f55;fill-rule:nonzero;"/><path d="M72.791,76.197c0,-0 21.283,11.681 21.283,28.001c-0,11.127 -9.608,20.283 -21.283,20.283c-11.675,0 -21.281,-9.156 -21.281,-20.283c-0,-16.32 21.281,-28.001 21.281,-28.001Z" style="fill:#ffb86c;fill-rule:nonzero;"/><path d="M23.85,147.871l18.317,-27.796l57.271,0l18.316,27.796" style="fill:none;fill-rule:nonzero;stroke:#6272a4;stroke-width:12.04px;"/><path d="M25.121,120.075l94.025,0" style="fill:none;fill-rule:nonzero;stroke:#6272a4;stroke-width:12.04px;"/></g></svg>