<svg xmlns="http://www.w3.org/2000/svg" xmlns:xlink="http://www.w3.org/1999/xlink" width="100%" height="100%" version="1.1" viewBox="0 0 167 167" xml:space="preserve" style="fill-rule:evenodd;clip-rule:evenodd;stroke-linejoin:round;stroke-miterlimit:2"><rect width="166.667" height="166.667" x="0" y="0" style="fill:none"/><path d="M130.083,46.125c1.704,11.371 3.688,17.879 -4.45,17.879c-11.05,0 -11.05,-26.192 -29.8,-41.112c-18.529,-14.759 -32.35,-11.171 -32.641,-11.092c15.416,12.883 6.825,34.058 -3.279,39.896c-9.688,5.6 -20.755,-1.463 -14.959,-18.088c-12.737,17.417 -23.75,38.525 -23.75,59.554c0,34.084 28.046,62.13 62.129,62.13c34.083,-0 62.129,-28.046 62.13,-62.13c-0,-16.2 -6.55,-32.454 -15.38,-47.037Z" style="fill:#f55;fill-rule:nonzero"/><path d="M83.333,83.408c0,0 27.017,15.559 27.017,37.296c0,14.821 -12.196,27.017 -27.017,27.017c-14.821,-0 -27.016,-12.196 -27.016,-27.017c-0,-21.737 27.016,-37.296 27.016,-37.296Z" style="fill:#ffb86c;fill-rule:nonzero"/></svg>