<svg xmlns="http://www.w3.org/2000/svg" xmlns:xlink="http://www.w3.org/1999/xlink" width="100%" height="100%" version="1.1" viewBox="0 0 167 167" xml:space="preserve" style="fill-rule:evenodd;clip-rule:evenodd;stroke-linejoin:round;stroke-miterlimit:2"><path d="M75.913,144.2c4.49,2.973 10.351,2.973 14.841,-0c14.313,-9.458 45.504,-32.05 58.929,-57.338c17.713,-33.358 -3.087,-66.629 -30.575,-66.629c-11.985,-0.23 -23.341,5.474 -30.312,15.225c-1.269,1.748 -3.303,2.785 -5.463,2.785c-2.16,0 -4.193,-1.037 -5.462,-2.785c-6.972,-9.751 -18.328,-15.455 -30.313,-15.225c-27.5,0 -48.287,33.271 -30.575,66.629c13.434,25.288 44.617,47.88 58.93,57.338Z" style="fill:#44475a;fill-rule:nonzero"/><rect width="166.667" height="166.667" x="0" y="0" style="fill:none"/></svg>