<?xml version="1.0" encoding="UTF-8" standalone="no"?><!DOCTYPE svg PUBLIC "-//W3C//DTD SVG 1.1//EN" "http://www.w3.org/Graphics/SVG/1.1/DTD/svg11.dtd"><svg width="100%" height="100%" viewBox="0 0 167 167" version="1.1" xmlns="http://www.w3.org/2000/svg" xmlns:xlink="http://www.w3.org/1999/xlink" xml:space="preserve" xmlns:serif="http://www.serif.com/" style="fill-rule:evenodd;clip-rule:evenodd;stroke-linecap:round;stroke-miterlimit:10;"><path d="M83.333,74.102l0,35.571c0,19.516 11.109,35.335 24.809,35.335" style="fill:none;fill-rule:nonzero;stroke:#6272a4;stroke-width:8.16px;"/><path d="M7.108,27.004c13.334,-7.671 32.5,-7.287 49.388,2.475c16.887,9.763 26.837,26.167 26.837,41.534c-13.333,7.67 -32.479,7.287 -49.387,-2.476c-16.908,-9.762 -26.825,-26.166 -26.838,-41.533Z" style="fill:#6272a4;fill-rule:nonzero;"/><path d="M159.558,27.004c-13.308,-7.671 -32.475,-7.287 -49.387,2.475c-16.913,9.763 -26.838,26.167 -26.838,41.534c13.334,7.67 32.5,7.287 49.388,-2.476c16.887,-9.762 26.825,-26.166 26.837,-41.533Z" style="fill:#6272a4;fill-rule:nonzero;"/></svg>