<svg xmlns="http://www.w3.org/2000/svg" xmlns:xlink="http://www.w3.org/1999/xlink" width="100%" height="100%" version="1.1" viewBox="0 0 1346 1346" xml:space="preserve" style="fill-rule:evenodd;clip-rule:evenodd;stroke-linejoin:round;stroke-miterlimit:2"><path d="M672.742,0c371.058,0 672.312,301.25 672.312,672.308c0,371.059 -301.254,672.313 -672.312,672.313c-371.059,-0 -672.309,-301.254 -672.309,-672.313c0,-371.058 301.25,-672.308 672.309,-672.308Zm216.42,540.717l-214.983,-123.8c-53.375,-31.134 -117.871,-31.134 -171.25,-0c-53.375,31.137 -85.25,85.995 -85.25,148.266l0,248.342c0,61.533 31.875,117.133 85.25,148.267c26.692,15.566 56.346,22.983 85.254,22.983c29.654,0 58.567,-7.417 85.254,-22.983l214.984,-123.8c53.379,-31.138 85.254,-85.996 85.254,-148.267c1.483,-62.271 -30.396,-117.871 -84.513,-149.008Z" style="fill:#bd93f9"/><path d="M889.163,540.717c54.116,31.137 85.995,86.737 84.512,149.008c0,62.271 -31.875,117.129 -85.254,148.267l-214.983,123.8c-26.688,15.566 -55.6,22.983 -85.255,22.983c-28.908,0 -58.562,-7.417 -85.254,-22.983c-53.375,-31.134 -85.25,-86.734 -85.25,-148.267l0,-248.342c0,-62.27 31.875,-117.129 85.25,-148.266c53.379,-31.134 117.875,-31.134 171.25,-0l214.984,123.8Z" style="fill:#282a36"/></svg>