<svg xmlns="http://www.w3.org/2000/svg" id="Layer_1" data-name="Layer 1" viewBox="0 0 40 40"><defs><style>.cls-1,.cls-2,.cls-3{fill:none}.cls-1,.cls-2{stroke:#94b8ff;stroke-linecap:round;stroke-linejoin:round;stroke-width:3px}.cls-1{opacity:.5}.cls-3{opacity:.1}</style></defs><line x1="28.415" x2="34.25" y1="24.957" y2="28.408" class="cls-1"/><line x1="11.599" x2="28.415" y1="15.043" y2="24.957" class="cls-2"/><line x1="5.75" x2="11.599" y1="11.592" y2="15.043" class="cls-1"/><line x1="28.415" x2="34.25" y1="15.043" y2="11.592" class="cls-1"/><line x1="11.599" x2="28.415" y1="24.957" y2="15.043" class="cls-2"/><line x1="5.75" x2="11.599" y1="28.408" y2="24.957" class="cls-1"/><line x1="20.007" x2="20.007" y1="29.87" y2="36.451" class="cls-1"/><line x1="20.007" x2="20.007" y1="10.129" y2="29.87" class="cls-2"/><line x1="20.007" x2="20.007" y1="3.549" y2="10.129" class="cls-1"/><line x1="20.007" x2="15.986" y1="10.129" y2="6.474" class="cls-2"/><line x1="20.007" x2="24.029" y1="10.129" y2="6.474" class="cls-2"/><line x1="20.007" x2="15.986" y1="29.87" y2="33.526" class="cls-2"/><line x1="20.007" x2="24.029" y1="29.87" y2="33.526" class="cls-2"/><line x1="11.599" x2="6.481" y1="15.043" y2="16.71" class="cls-2"/><line x1="11.599" x2="10.868" y1="15.043" y2="9.398" class="cls-2"/><line x1="28.415" x2="29.147" y1="24.957" y2="30.601" class="cls-2"/><line x1="28.415" x2="33.533" y1="24.957" y2="23.29" class="cls-2"/><line x1="11.599" x2="10.868" y1="24.957" y2="30.601" class="cls-2"/><line x1="11.599" x2="6.481" y1="24.957" y2="23.29" class="cls-2"/><line x1="28.415" x2="33.533" y1="15.043" y2="16.71" class="cls-2"/><line x1="28.415" x2="29.147" y1="15.043" y2="9.398" class="cls-2"/><rect width="40" height="40" class="cls-3"/></svg>