<?xml version="1.0" encoding="UTF-8" standalone="no"?><!DOCTYPE svg PUBLIC "-//W3C//DTD SVG 1.1//EN" "http://www.w3.org/Graphics/SVG/1.1/DTD/svg11.dtd"><svg width="100%" height="100%" viewBox="0 0 167 167" version="1.1" xmlns="http://www.w3.org/2000/svg" xmlns:xlink="http://www.w3.org/1999/xlink" xml:space="preserve" xmlns:serif="http://www.serif.com/" style="fill-rule:evenodd;clip-rule:evenodd;stroke-linejoin:round;stroke-miterlimit:2;"><path d="M152.083,47.917l0,70.833c0,18.397 -14.936,33.333 -33.333,33.333l-70.833,0c-18.398,0 -33.334,-14.936 -33.334,-33.333l0,-70.833c0,-18.398 14.936,-33.334 33.334,-33.334l70.833,0c18.397,0 33.333,14.936 33.333,33.334Zm-106.865,38.357l24.908,24.908c2.929,2.929 7.678,2.929 10.606,0l40.717,-40.716c2.927,-2.927 2.927,-7.68 0,-10.607c-2.927,-2.927 -7.679,-2.927 -10.606,0l-35.414,35.414l-19.605,-19.605c-2.927,-2.927 -7.679,-2.927 -10.606,-0c-2.927,2.927 -2.927,7.679 -0,10.606Z" style="fill:#f1fa8c;"/></svg>