<?xml version="1.0" encoding="UTF-8" standalone="no"?><!DOCTYPE svg PUBLIC "-//W3C//DTD SVG 1.1//EN" "http://www.w3.org/Graphics/SVG/1.1/DTD/svg11.dtd"><svg width="100%" height="100%" viewBox="0 0 167 167" version="1.1" xmlns="http://www.w3.org/2000/svg" xmlns:xlink="http://www.w3.org/1999/xlink" xml:space="preserve" xmlns:serif="http://www.serif.com/" style="fill-rule:evenodd;clip-rule:evenodd;stroke-linecap:round;stroke-linejoin:round;"><rect id="Artboard2" x="0" y="0" width="166.667" height="166.667" style="fill:none;"/><clipPath id="_clip1"><rect x="0" y="0" width="166.667" height="166.667"/></clipPath><g clip-path="url(#_clip1)"><path d="M72.792,147.871l-0,-32.375" style="fill:none;fill-rule:nonzero;stroke:#6272a4;stroke-width:12.04px;"/><path d="M160.667,64.967l-54.859,-35.117l0,0.025c-0.175,-0.108 -0.325,-0.242 -0.5,-0.35c-9.728,-6.136 -20.998,-9.394 -32.499,-9.394c-33.418,0 -60.917,27.499 -60.917,60.917c0,33.418 27.499,60.917 60.917,60.917c32.046,-0 58.893,-25.288 60.808,-57.278l16.325,3.409c1.26,0.401 2.574,0.604 3.896,0.604c7.051,0 12.854,-5.802 12.854,-12.854c-0,-4.413 -2.273,-8.529 -6.009,-10.879l-0.016,-0Z" style="fill:#fff;fill-opacity:0.8;fill-rule:nonzero;"/><path d="M58.179,81.744l10.027,-0c0.297,1.483 0.453,3.015 0.453,4.58c0,1.927 -4.593,6.088 -7.831,-0c-0.745,-1.401 -1.616,-2.98 -2.649,-4.58Z" style="fill:#8be9fd;"/><path d="M42.708,81.744c0.206,-21.78 18.181,-39.587 39.962,-39.587c21.781,0 39.756,17.807 39.961,39.587" style="fill:#2f81f9;fill-rule:nonzero;"/><path d="M31.625,77.264c-0.001,-0.122 -0.002,-0.243 -0.002,-0.364c0,-20.502 16.87,-37.372 37.372,-37.372c20.501,-0 37.372,16.87 37.372,37.372c-0,0.121 -0.001,0.242 -0.002,0.364" style="fill:#64a7ff;fill-rule:nonzero;"/><path d="M22.275,79.813c1.013,-16.817 15.156,-30.336 32.209,-30.336c17.701,0 32.267,14.566 32.267,32.267l-28.572,-0c-3.457,-5.356 -8.733,-10.956 -17.207,-10.956c-7.312,0 -14.226,3.389 -18.705,9.166c0.003,-0.047 0.005,-0.094 0.008,-0.141Z" style="fill:#93c9ff;fill-rule:nonzero;"/><path d="M40.972,70.788c11.006,0 16.618,9.447 19.856,15.536c3.238,6.088 7.831,1.927 7.831,-0c-0.006,-12.97 -10.68,-23.639 -23.65,-23.639c-10.597,-0 -19.962,7.122 -22.792,17.334c4.478,-5.817 11.415,-9.231 18.755,-9.231Z" style="fill:#104be0;fill-rule:nonzero;"/><path d="M22.237,81.744l-0.02,-0c0,-0.6 0.017,-1.197 0.05,-1.79c4.479,-5.777 11.393,-9.166 18.705,-9.166c8.474,0 13.75,5.6 17.207,10.956c1.033,1.6 1.904,3.179 2.649,4.58c3.238,6.088 7.831,1.927 7.831,-0c-0,-1.565 -0.156,-3.097 -0.453,-4.58l55.403,-0c-0.754,26.528 -23.177,47.84 -50.686,47.84c-27.51,0 -49.932,-21.312 -50.686,-47.84Z" style="fill:#2f81f9;"/><circle cx="116.689" cy="80.459" r="11.957" style="fill:#e4ebf7;"/><circle cx="101.54" cy="80.459" r="11.957" style="fill:#e4ebf7;"/><circle cx="86.396" cy="80.459" r="11.957" style="fill:#e4ebf7;"/><circle cx="71.247" cy="80.459" r="11.957" style="fill:#e4ebf7;"/><path d="M23.85,147.871l18.317,-27.796l57.271,0l18.316,27.796" style="fill:none;fill-rule:nonzero;stroke:#6272a4;stroke-width:12.04px;"/><path d="M25.121,120.075l94.025,0" style="fill:none;fill-rule:nonzero;stroke:#6272a4;stroke-width:12.04px;"/></g></svg>